<svg width="20" height="21" viewBox="0 0 20 21" fill="none" xmlns="http://www.w3.org/2000/svg">
<path d="M13.8914 1.04831C14.5624 0.377184 15.4725 9.37857e-05 16.4215 1.74917e-08C17.3705 -9.37507e-05 18.2807 0.376816 18.9519 1.04781C19.623 1.71881 20.0001 2.62893 20.0002 3.57796C20.0003 4.52699 19.6234 5.43718 18.9524 6.10831L18.0604 7.00131L13.0004 1.94031L13.8914 1.04831ZM11.9404 3.00131L1.94036 13.0003C1.53415 13.4066 1.24856 13.9175 1.11536 14.4763L0.0203556 19.0783C-0.00929281 19.203 -0.00651306 19.3331 0.0284298 19.4564C0.0633727 19.5797 0.129314 19.6919 0.219964 19.7825C0.310614 19.873 0.42295 19.9389 0.546259 19.9737C0.669568 20.0085 0.799738 20.0111 0.924356 19.9813L5.52536 18.8853C6.08454 18.7523 6.59584 18.4667 7.00236 18.0603L17.0004 8.06131L11.9404 3.00131Z" fill="#262626"/>
</svg>
